<?xml version="1.0" encoding="UTF-8"?>
<svg version="1.1" xmlns="http://www.w3.org/2000/svg" width="150" height="150">
<path d="M0 0 C7.43778017 4.32543064 13.00396685 10.87177141 15.625 19.0625 C15.625 20.0525 15.625 21.0425 15.625 22.0625 C17.3575 21.9696875 17.3575 21.9696875 19.125 21.875 C26.6531486 21.92801513 32.23266242 24.7601644 37.73046875 29.82421875 C42.59957574 35.57679257 46.74610591 43.62958157 46.7578125 51.265625 C46.75910156 52.08160156 46.76039063 52.89757813 46.76171875 53.73828125 C46.75785156 54.58777344 46.75398437 55.43726563 46.75 56.3125 C46.75386719 57.14652344 46.75773438 57.98054688 46.76171875 58.83984375 C46.75576156 62.63457102 46.62076192 66.08674983 45.96484375 69.83984375 C45.56537363 73.62792243 46.25910708 75.07611052 48.0625 78.375 C52.33375745 87.87198583 52.250619 99.32591748 49 109.1875 C45.34655627 117.59171154 39.60625344 124.95542548 30.9375 128.53515625 C25.62738779 129.74607711 20.03487592 129.26508897 14.625 129.0625 C14.35945313 129.805 14.09390625 130.5475 13.8203125 131.3125 C10.67574698 138.54705596 4.54369816 143.55802898 -2.375 147.0625 C-8.68766836 149.16672279 -16.24576198 149.36970097 -22.4140625 146.79296875 C-24.84136078 145.32155342 -27.1145566 143.77670659 -29.375 142.0625 C-30.86 141.0725 -30.86 141.0725 -32.375 140.0625 C-32.91769531 140.41183594 -33.46039063 140.76117188 -34.01953125 141.12109375 C-34.73496094 141.57613281 -35.45039062 142.03117188 -36.1875 142.5 C-36.89519531 142.95246094 -37.60289063 143.40492188 -38.33203125 143.87109375 C-43.63361672 146.96284054 -49.42628647 146.59522061 -55.375 146.0625 C-63.71764218 143.73667248 -69.94611181 138.67348933 -74.27734375 131.22265625 C-77.92388531 124.04636628 -78.94219361 117.0470316 -79.375 109.0625 C-80.11878906 108.79179688 -80.86257812 108.52109375 -81.62890625 108.2421875 C-90.68934886 104.34993477 -94.68143484 96.80436357 -98.375 88.0625 C-101.62485593 78.31293221 -100.35287641 65.5706958 -95.86328125 56.515625 C-91.80841861 49.83201938 -87.00104172 44.60451391 -79.375 42.0625 C-79.27703125 41.30066406 -79.1790625 40.53882813 -79.078125 39.75390625 C-77.50214544 28.87149566 -74.5857677 20.66077091 -66.375 13.0625 C-58.53126786 7.25179402 -52.06266631 6.51219469 -42.375 7.0625 C-39.91796875 7.6875 -39.91796875 7.6875 -37.875 8.375 C-36.1425 8.7153125 -36.1425 8.7153125 -34.375 9.0625 C-31.66699403 7.02300874 -31.66699403 7.02300874 -29.375 4.0625 C-28.19554933 3.10895748 -26.98557383 2.19210475 -25.75 1.3125 C-24.89535156 0.70148438 -24.89535156 0.70148438 -24.0234375 0.078125 C-17.37401627 -4.01867481 -6.86257398 -3.10576832 0 0 Z " fill="#FBFBFC" transform="translate(99.375,1.9375)"/>
<path d="M0 0 C3.17925514 0.45810338 4.86011601 1.4753362 7.13208008 3.69628906 C7.71560745 4.26067688 8.29913483 4.8250647 8.90034485 5.40655518 C9.82559212 6.32679474 9.82559212 6.32679474 10.76953125 7.265625 C11.40992844 7.89603699 12.05032562 8.52644897 12.71012878 9.17596436 C14.05964138 10.51030231 15.40512058 11.84873015 16.74682617 13.19091797 C18.80685784 15.24437585 20.88966991 17.27265681 22.97460938 19.30078125 C24.28271601 20.60008822 25.58940646 21.90082285 26.89453125 23.203125 C27.52148392 23.80852112 28.14843658 24.41391724 28.79438782 25.03765869 C32.91444472 29.22469324 32.91444472 29.22469324 33.27539062 32.49560547 C31.36610181 36.24474112 28.66966027 38.92063875 25.69921875 41.8671875 C25.06643509 42.50616974 24.43365143 43.14515198 23.7816925 43.80349731 C22.44419043 45.14809093 21.10154273 46.48758301 19.75415039 47.82226562 C17.68945874 49.87305445 15.64993101 51.94675055 13.61132812 54.0234375 C12.30874336 55.32697308 11.00475355 56.62910649 9.69921875 57.9296875 C9.08866135 58.55350311 8.47810394 59.17731873 7.8490448 59.82003784 C6.1003418 61.53076172 6.1003418 61.53076172 3 64 C1.68 63.67 0.36 63.34 -1 63 C-1 56.73 -1 50.46 -1 44 C-15.52 44 -30.04 44 -45 44 C-45 36.08 -45 28.16 -45 20 C-30.48 20 -15.96 20 -1 20 C-1 13.73 -1 7.46 -1 1 C-0.67 0.67 -0.34 0.34 0 0 Z " fill="#298AFF" transform="translate(68,43)"/>
<path d="M0 0 C7.59 0 15.18 0 23 0 C23 21.12 23 42.24 23 64 C15.41 64 7.82 64 0 64 C-1.77916467 62.22083533 -1.12764835 59.61686701 -1.12939453 57.2109375 C-1.13254669 55.9729541 -1.13569885 54.7349707 -1.13894653 53.45947266 C-1.13715675 52.09798141 -1.1351058 50.73649049 -1.1328125 49.375 C-1.13348559 47.98876936 -1.13445566 46.60253883 -1.13571167 45.21630859 C-1.1371884 42.30760578 -1.1350349 39.39893363 -1.13037109 36.49023438 C-1.12467381 32.75403402 -1.12795294 29.01790548 -1.13394356 25.28170776 C-1.13754985 22.41820734 -1.13641027 19.55472407 -1.13381577 16.69122314 C-1.13314668 15.31325268 -1.13397426 13.93528068 -1.13629532 12.55731201 C-1.13882292 10.63456246 -1.13429024 8.71180748 -1.12939453 6.7890625 C-1.12859894 5.69287598 -1.12780334 4.59668945 -1.12698364 3.46728516 C-1 1 -1 1 0 0 Z " fill="#298AFF" transform="translate(108,43)"/>
</svg>
