<svg xmlns="http://www.w3.org/2000/svg" xmlns:xlink="http://www.w3.org/1999/xlink" width="300" zoomAndPan="magnify" viewBox="0 0 224.87999 225" height="300" preserveAspectRatio="xMidYMid meet" version="1.0"><defs><clipPath id="febcd6c30e"><path d="M 0 0.0585938 L 224.761719 0.0585938 L 224.761719 224.9375 L 0 224.9375 Z M 0 0.0585938 " clip-rule="nonzero"/></clipPath><clipPath id="ba185e1077"><path d="M 127.683594 0.0585938 C 130.148438 0.0585938 132.628906 0.0585938 135.089844 0.0585938 C 154.71875 3.816406 166.984375 16.320312 172.570312 36.777344 C 205.292969 34.046875 229.082031 72.730469 214.585938 110.699219 C 219.40625 118.675781 223.425781 127.601562 224.878906 139.578125 C 224.878906 143.007812 224.878906 146.433594 224.878906 149.863281 C 220.550781 180.347656 201.921875 200.945312 171.34375 195.398438 C 163.472656 211.050781 149.472656 226.113281 127.6875 224.773438 C 116.425781 223.746094 108.589844 217.796875 101.730469 210.5625 C 94.507812 216.574219 86.683594 221.292969 75.378906 221.34375 C 49.222656 221.433594 31.726562 198.277344 31.300781 166.511719 C 14.488281 159.082031 3.101562 145.210938 0 121.476562 C 0 118.046875 0 114.609375 0 111.195312 C 3.421875 87.675781 14.191406 72.902344 32.121094 66.640625 C 31.042969 26.964844 66.910156 2.175781 96.375 19.652344 C 103.390625 11.011719 113.316406 1.582031 127.683594 0.0585938 Z M 127.683594 0.0585938 " clip-rule="nonzero"/></clipPath><clipPath id="52ea2fd5f6"><path d="M 0 0.0585938 L 224.761719 0.0585938 L 224.761719 224.9375 L 0 224.9375 Z M 0 0.0585938 " clip-rule="nonzero"/></clipPath><clipPath id="1a41f2fcfb"><path d="M 127.683594 0.0585938 C 130.148438 0.0585938 132.628906 0.0585938 135.089844 0.0585938 C 154.71875 3.816406 166.984375 16.320312 172.570312 36.777344 C 205.292969 34.046875 229.082031 72.730469 214.585938 110.699219 C 219.40625 118.675781 223.425781 127.601562 224.878906 139.578125 C 224.878906 143.007812 224.878906 146.433594 224.878906 149.863281 C 220.550781 180.347656 201.921875 200.945312 171.34375 195.398438 C 163.472656 211.050781 149.472656 226.113281 127.6875 224.773438 C 116.425781 223.746094 108.589844 217.796875 101.730469 210.5625 C 94.507812 216.574219 86.683594 221.292969 75.378906 221.34375 C 49.222656 221.433594 31.726562 198.277344 31.300781 166.511719 C 14.488281 159.082031 3.101562 145.210938 0 121.476562 C 0 118.046875 0 114.609375 0 111.195312 C 3.421875 87.675781 14.191406 72.902344 32.121094 66.640625 C 31.042969 26.964844 66.910156 2.175781 96.375 19.652344 C 103.390625 11.011719 113.316406 1.582031 127.683594 0.0585938 Z M 127.683594 0.0585938 " clip-rule="nonzero"/></clipPath><clipPath id="1c0891666a"><rect x="0" width="225" y="0" height="225"/></clipPath><clipPath id="4a1d1cc232"><path d="M 34.117188 64.625 L 151.804688 64.625 L 151.804688 160.574219 L 34.117188 160.574219 Z M 34.117188 64.625 " clip-rule="nonzero"/></clipPath><clipPath id="a63f2a8ba2"><path d="M 160.171875 64.625 L 197.066406 64.625 L 197.066406 160.464844 L 160.171875 160.464844 Z M 160.171875 64.625 " clip-rule="nonzero"/></clipPath><clipPath id="0988a15b96"><path d="M 197.066406 68.136719 L 197.066406 156.859375 C 197.066406 157.792969 196.695312 158.6875 196.039062 159.34375 C 195.378906 160.003906 194.484375 160.375 193.554688 160.375 L 163.6875 160.375 C 162.753906 160.375 161.859375 160.003906 161.203125 159.34375 C 160.542969 158.6875 160.171875 157.792969 160.171875 156.859375 L 160.171875 68.136719 C 160.171875 67.207031 160.542969 66.3125 161.203125 65.652344 C 161.859375 64.996094 162.753906 64.625 163.6875 64.625 L 193.554688 64.625 C 194.484375 64.625 195.378906 64.996094 196.039062 65.652344 C 196.695312 66.3125 197.066406 67.207031 197.066406 68.136719 Z M 197.066406 68.136719 " clip-rule="nonzero"/></clipPath><clipPath id="9e8bd3cb32"><path d="M 0.171875 0.625 L 37.066406 0.625 L 37.066406 96.464844 L 0.171875 96.464844 Z M 0.171875 0.625 " clip-rule="nonzero"/></clipPath><clipPath id="6e1b6b3e91"><path d="M 37.066406 4.136719 L 37.066406 92.859375 C 37.066406 93.792969 36.695312 94.6875 36.039062 95.34375 C 35.378906 96.003906 34.484375 96.375 33.554688 96.375 L 3.6875 96.375 C 2.753906 96.375 1.859375 96.003906 1.203125 95.34375 C 0.542969 94.6875 0.171875 93.792969 0.171875 92.859375 L 0.171875 4.136719 C 0.171875 3.207031 0.542969 2.3125 1.203125 1.652344 C 1.859375 0.996094 2.753906 0.625 3.6875 0.625 L 33.554688 0.625 C 34.484375 0.625 35.378906 0.996094 36.039062 1.652344 C 36.695312 2.3125 37.066406 3.207031 37.066406 4.136719 Z M 37.066406 4.136719 " clip-rule="nonzero"/></clipPath><clipPath id="914f35fc44"><rect x="0" width="38" y="0" height="97"/></clipPath></defs><g clip-path="url(#febcd6c30e)"><g clip-path="url(#ba185e1077)"><g transform="matrix(1, 0, 0, 1, 0, -0.000000000000003234)"><g clip-path="url(#1c0891666a)"><g clip-path="url(#52ea2fd5f6)"><g clip-path="url(#1a41f2fcfb)"><path fill="#ffffff" d="M 0 0.0585938 L 224.878906 0.0585938 L 224.878906 224.941406 L 0 224.941406 Z M 0 0.0585938 " fill-opacity="1" fill-rule="nonzero"/></g></g></g></g><path stroke-linecap="butt" transform="matrix(0.7496, 0, 0, 0.7496, 0.000000000000021305, 0.060015)" fill="none" stroke-linejoin="miter" d="M 170.335652 -0.001896 C 173.623864 -0.001896 176.932921 -0.001896 180.215922 -0.001896 C 206.401765 5.011195 222.76466 21.691968 230.216552 48.982567 C 273.870046 45.339999 305.605724 96.945651 286.267284 147.59767 C 292.697797 158.238763 298.060033 170.146156 299.998567 186.123429 C 299.998567 190.698786 299.998567 195.268932 299.998567 199.844289 C 294.224653 240.511815 269.372855 267.990014 228.580262 260.590234 C 218.07987 281.471164 199.403241 301.565216 170.340863 299.777804 C 155.317224 298.407281 144.863731 290.470756 135.713017 280.819775 C 126.077669 288.839678 115.63981 295.134702 100.558848 295.202447 C 65.665235 295.322302 42.32466 264.430824 41.756649 222.054053 C 19.328018 212.142516 4.137624 193.637854 -0.000000000000028422 161.975131 C -0.000000000000028422 157.399773 -0.000000000000028422 152.813994 -0.000000000000028422 148.259481 C 4.564935 116.88337 18.931974 97.17494 42.850983 88.821526 C 41.412715 35.892251 89.261155 2.822527 128.568581 26.137047 C 137.92774 14.610065 151.169178 2.030438 170.335652 -0.001896 Z M 170.335652 -0.001896 " stroke="#fcfcfc" stroke-width="0.2" stroke-opacity="1" stroke-miterlimit="4"/></g></g><g clip-path="url(#4a1d1cc232)"><path fill="#288aff" d="M 150.882812 109.890625 L 106.691406 65.703125 C 105.628906 64.648438 104.054688 64.339844 102.675781 64.90625 C 101.300781 65.472656 100.402344 66.820312 100.402344 68.308594 L 100.402344 94.085938 L 37.800781 94.085938 C 35.765625 94.085938 34.117188 95.738281 34.117188 97.769531 L 34.117188 127.230469 C 34.117188 129.261719 35.765625 130.910156 37.800781 130.910156 L 100.402344 130.910156 L 100.402344 156.6875 C 100.402344 158.175781 101.300781 159.523438 102.675781 160.09375 C 103.132812 160.277344 103.613281 160.371094 104.085938 160.371094 C 105.042969 160.371094 105.984375 159.996094 106.691406 159.296875 L 150.882812 115.105469 C 152.316406 113.664062 152.316406 111.335938 150.882812 109.890625 Z M 150.882812 109.890625 " fill-opacity="1" fill-rule="nonzero"/></g><g clip-path="url(#a63f2a8ba2)"><g clip-path="url(#0988a15b96)"><g transform="matrix(1, 0, 0, 1, 160, 64)"><g clip-path="url(#914f35fc44)"><g clip-path="url(#9e8bd3cb32)"><g clip-path="url(#6e1b6b3e91)"><path fill="#288aff" d="M 37.066406 0.625 L 37.066406 96.320312 L 0.171875 96.320312 L 0.171875 0.625 Z M 37.066406 0.625 " fill-opacity="1" fill-rule="nonzero"/></g></g></g></g></g></g></svg>