<svg xmlns="http://www.w3.org/2000/svg" xmlns:xlink="http://www.w3.org/1999/xlink" width="128" zoomAndPan="magnify" viewBox="0 0 96 95.999999" height="128" preserveAspectRatio="xMidYMid meet" version="1.0"><defs><clipPath id="707df0011a"><path d="M 54.507812 0 C 55.558594 0 56.617188 0 57.667969 0 C 66.046875 1.601562 71.285156 6.941406 73.667969 15.675781 C 87.636719 14.507812 97.792969 31.023438 91.605469 47.230469 C 93.664062 50.636719 95.378906 54.445312 96 59.558594 C 96 61.023438 96 62.484375 96 63.949219 C 94.152344 76.964844 86.199219 85.757812 73.144531 83.390625 C 69.785156 90.070312 63.808594 96.5 54.507812 95.929688 C 49.703125 95.492188 46.355469 92.949219 43.429688 89.863281 C 40.34375 92.429688 37.003906 94.441406 32.179688 94.464844 C 21.011719 94.503906 13.542969 84.617188 13.363281 71.058594 C 6.183594 67.886719 1.324219 61.964844 0 51.832031 C 0 50.367188 0 48.902344 0 47.441406 C 1.460938 37.402344 6.058594 31.097656 13.710938 28.421875 C 13.253906 11.484375 28.5625 0.902344 41.140625 8.363281 C 44.136719 4.675781 48.375 0.648438 54.507812 0 Z M 54.507812 0 " clip-rule="nonzero"/></clipPath><clipPath id="0b81858def"><path d="M 0 0 L 96 0 L 96 95.964844 L 0 95.964844 Z M 0 0 " clip-rule="nonzero"/></clipPath><clipPath id="eddc7c1381"><path d="M 54.507812 0 C 55.558594 0 56.617188 0 57.667969 0 C 66.046875 1.601562 71.285156 6.941406 73.667969 15.675781 C 87.636719 14.507812 97.792969 31.023438 91.605469 47.230469 C 93.664062 50.636719 95.378906 54.445312 96 59.558594 C 96 61.023438 96 62.484375 96 63.949219 C 94.152344 76.964844 86.199219 85.757812 73.144531 83.390625 C 69.785156 90.070312 63.808594 96.5 54.507812 95.929688 C 49.703125 95.492188 46.355469 92.949219 43.429688 89.863281 C 40.34375 92.429688 37.003906 94.441406 32.179688 94.464844 C 21.011719 94.503906 13.542969 84.617188 13.363281 71.058594 C 6.183594 67.886719 1.324219 61.964844 0 51.832031 C 0 50.367188 0 48.902344 0 47.441406 C 1.460938 37.402344 6.058594 31.097656 13.710938 28.421875 C 13.253906 11.484375 28.5625 0.902344 41.140625 8.363281 C 44.136719 4.675781 48.375 0.648438 54.507812 0 Z M 54.507812 0 " clip-rule="nonzero"/></clipPath><linearGradient x1="0" gradientTransform="matrix(0.375, 0, 0, 0.375, 0.0000005, 0.000002)" y1="127.953003" x2="256" gradientUnits="userSpaceOnUse" y2="127.953003" id="3e6ea027b9"><stop stop-opacity="1" stop-color="rgb(92.158508%, 29.40979%, 24.708557%)" offset="0"/><stop stop-opacity="1" stop-color="rgb(92.166138%, 29.521179%, 24.751282%)" offset="0.0078125"/><stop stop-opacity="1" stop-color="rgb(92.182922%, 29.743958%, 24.838257%)" offset="0.015625"/><stop stop-opacity="1" stop-color="rgb(92.198181%, 29.968262%, 24.923706%)" offset="0.0234375"/><stop stop-opacity="1" stop-color="rgb(92.21344%, 30.19104%, 25.009155%)" offset="0.03125"/><stop stop-opacity="1" stop-color="rgb(92.228699%, 30.415344%, 25.094604%)" offset="0.0390625"/><stop stop-opacity="1" stop-color="rgb(92.243958%, 30.639648%, 25.18158%)" offset="0.046875"/><stop stop-opacity="1" stop-color="rgb(92.259216%, 30.862427%, 25.267029%)" offset="0.0546875"/><stop stop-opacity="1" stop-color="rgb(92.274475%, 31.086731%, 25.352478%)" offset="0.0625"/><stop stop-opacity="1" stop-color="rgb(92.289734%, 31.309509%, 25.437927%)" offset="0.0703125"/><stop stop-opacity="1" stop-color="rgb(92.304993%, 31.533813%, 25.523376%)" offset="0.078125"/><stop stop-opacity="1" stop-color="rgb(92.320251%, 31.756592%, 25.610352%)" offset="0.0859375"/><stop stop-opacity="1" stop-color="rgb(92.33551%, 31.980896%, 25.695801%)" offset="0.09375"/><stop stop-opacity="1" stop-color="rgb(92.350769%, 32.2052%, 25.78125%)" offset="0.101562"/><stop stop-opacity="1" stop-color="rgb(92.366028%, 32.427979%, 25.866699%)" offset="0.109375"/><stop stop-opacity="1" stop-color="rgb(92.381287%, 32.652283%, 25.952148%)" offset="0.117188"/><stop stop-opacity="1" stop-color="rgb(92.396545%, 32.875061%, 26.039124%)" offset="0.125"/><stop stop-opacity="1" stop-color="rgb(92.411804%, 33.099365%, 26.124573%)" offset="0.132812"/><stop stop-opacity="1" stop-color="rgb(92.427063%, 33.323669%, 26.210022%)" offset="0.140625"/><stop stop-opacity="1" stop-color="rgb(92.442322%, 33.546448%, 26.295471%)" offset="0.148438"/><stop stop-opacity="1" stop-color="rgb(92.457581%, 33.770752%, 26.382446%)" offset="0.15625"/><stop stop-opacity="1" stop-color="rgb(92.472839%, 33.99353%, 26.467896%)" offset="0.164062"/><stop stop-opacity="1" stop-color="rgb(92.488098%, 34.217834%, 26.553345%)" offset="0.171875"/><stop stop-opacity="1" stop-color="rgb(92.503357%, 34.442139%, 26.638794%)" offset="0.179688"/><stop stop-opacity="1" stop-color="rgb(92.518616%, 34.664917%, 26.724243%)" offset="0.1875"/><stop stop-opacity="1" stop-color="rgb(92.533875%, 34.889221%, 26.811218%)" offset="0.195312"/><stop stop-opacity="1" stop-color="rgb(92.549133%, 35.112%, 26.896667%)" offset="0.203125"/><stop stop-opacity="1" stop-color="rgb(92.564392%, 35.336304%, 26.982117%)" offset="0.210938"/><stop stop-opacity="1" stop-color="rgb(92.579651%, 35.559082%, 27.067566%)" offset="0.21875"/><stop stop-opacity="1" stop-color="rgb(92.59491%, 35.783386%, 27.154541%)" offset="0.226562"/><stop stop-opacity="1" stop-color="rgb(92.610168%, 36.00769%, 27.23999%)" offset="0.234375"/><stop stop-opacity="1" stop-color="rgb(92.626953%, 36.230469%, 27.325439%)" offset="0.242188"/><stop stop-opacity="1" stop-color="rgb(92.642212%, 36.454773%, 27.410889%)" offset="0.25"/><stop stop-opacity="1" stop-color="rgb(92.657471%, 36.677551%, 27.496338%)" offset="0.257812"/><stop stop-opacity="1" stop-color="rgb(92.672729%, 36.901855%, 27.583313%)" offset="0.265625"/><stop stop-opacity="1" stop-color="rgb(92.687988%, 37.12616%, 27.668762%)" offset="0.273438"/><stop stop-opacity="1" stop-color="rgb(92.703247%, 37.348938%, 27.754211%)" offset="0.28125"/><stop stop-opacity="1" stop-color="rgb(92.718506%, 37.573242%, 27.839661%)" offset="0.289062"/><stop stop-opacity="1" stop-color="rgb(92.733765%, 37.796021%, 27.92511%)" offset="0.296875"/><stop stop-opacity="1" stop-color="rgb(92.749023%, 38.020325%, 28.012085%)" offset="0.304688"/><stop stop-opacity="1" stop-color="rgb(92.764282%, 38.243103%, 28.097534%)" offset="0.3125"/><stop stop-opacity="1" stop-color="rgb(92.779541%, 38.467407%, 28.182983%)" offset="0.320312"/><stop stop-opacity="1" stop-color="rgb(92.7948%, 38.691711%, 28.268433%)" offset="0.328125"/><stop stop-opacity="1" stop-color="rgb(92.810059%, 38.91449%, 28.355408%)" offset="0.335938"/><stop stop-opacity="1" stop-color="rgb(92.825317%, 39.138794%, 28.440857%)" offset="0.34375"/><stop stop-opacity="1" stop-color="rgb(92.840576%, 39.361572%, 28.526306%)" offset="0.351562"/><stop stop-opacity="1" stop-color="rgb(92.855835%, 39.585876%, 28.611755%)" offset="0.359375"/><stop stop-opacity="1" stop-color="rgb(92.871094%, 39.810181%, 28.697205%)" offset="0.367188"/><stop stop-opacity="1" stop-color="rgb(92.886353%, 40.032959%, 28.78418%)" offset="0.375"/><stop stop-opacity="1" stop-color="rgb(92.901611%, 40.257263%, 28.869629%)" offset="0.382812"/><stop stop-opacity="1" stop-color="rgb(92.91687%, 40.480042%, 28.955078%)" offset="0.390625"/><stop stop-opacity="1" stop-color="rgb(92.932129%, 40.704346%, 29.040527%)" offset="0.398438"/><stop stop-opacity="1" stop-color="rgb(92.947388%, 40.92865%, 29.127502%)" offset="0.40625"/><stop stop-opacity="1" stop-color="rgb(92.962646%, 41.151428%, 29.212952%)" offset="0.414062"/><stop stop-opacity="1" stop-color="rgb(92.977905%, 41.375732%, 29.298401%)" offset="0.421875"/><stop stop-opacity="1" stop-color="rgb(92.993164%, 41.598511%, 29.38385%)" offset="0.429688"/><stop stop-opacity="1" stop-color="rgb(93.008423%, 41.822815%, 29.469299%)" offset="0.4375"/><stop stop-opacity="1" stop-color="rgb(93.023682%, 42.045593%, 29.556274%)" offset="0.445312"/><stop stop-opacity="1" stop-color="rgb(93.03894%, 42.269897%, 29.641724%)" offset="0.453125"/><stop stop-opacity="1" stop-color="rgb(93.055725%, 42.494202%, 29.727173%)" offset="0.460938"/><stop stop-opacity="1" stop-color="rgb(93.070984%, 42.71698%, 29.812622%)" offset="0.46875"/><stop stop-opacity="1" stop-color="rgb(93.086243%, 42.941284%, 29.899597%)" offset="0.476562"/><stop stop-opacity="1" stop-color="rgb(93.101501%, 43.164062%, 29.985046%)" offset="0.484375"/><stop stop-opacity="1" stop-color="rgb(93.11676%, 43.388367%, 30.070496%)" offset="0.492188"/><stop stop-opacity="1" stop-color="rgb(93.132019%, 43.612671%, 30.155945%)" offset="0.5"/><stop stop-opacity="1" stop-color="rgb(93.147278%, 43.835449%, 30.241394%)" offset="0.507812"/><stop stop-opacity="1" stop-color="rgb(93.162537%, 44.059753%, 30.328369%)" offset="0.515625"/><stop stop-opacity="1" stop-color="rgb(93.177795%, 44.282532%, 30.413818%)" offset="0.523438"/><stop stop-opacity="1" stop-color="rgb(93.193054%, 44.506836%, 30.499268%)" offset="0.53125"/><stop stop-opacity="1" stop-color="rgb(93.208313%, 44.729614%, 30.584717%)" offset="0.539062"/><stop stop-opacity="1" stop-color="rgb(93.223572%, 44.953918%, 30.670166%)" offset="0.546875"/><stop stop-opacity="1" stop-color="rgb(93.238831%, 45.178223%, 30.757141%)" offset="0.554688"/><stop stop-opacity="1" stop-color="rgb(93.254089%, 45.401001%, 30.84259%)" offset="0.5625"/><stop stop-opacity="1" stop-color="rgb(93.269348%, 45.625305%, 30.92804%)" offset="0.570312"/><stop stop-opacity="1" stop-color="rgb(93.284607%, 45.848083%, 31.013489%)" offset="0.578125"/><stop stop-opacity="1" stop-color="rgb(93.299866%, 46.072388%, 31.100464%)" offset="0.585938"/><stop stop-opacity="1" stop-color="rgb(93.315125%, 46.296692%, 31.185913%)" offset="0.59375"/><stop stop-opacity="1" stop-color="rgb(93.330383%, 46.51947%, 31.271362%)" offset="0.601562"/><stop stop-opacity="1" stop-color="rgb(93.345642%, 46.743774%, 31.356812%)" offset="0.609375"/><stop stop-opacity="1" stop-color="rgb(93.360901%, 46.966553%, 31.442261%)" offset="0.617188"/><stop stop-opacity="1" stop-color="rgb(93.37616%, 47.190857%, 31.529236%)" offset="0.625"/><stop stop-opacity="1" stop-color="rgb(93.391418%, 47.413635%, 31.614685%)" offset="0.632812"/><stop stop-opacity="1" stop-color="rgb(93.406677%, 47.637939%, 31.700134%)" offset="0.640625"/><stop stop-opacity="1" stop-color="rgb(93.421936%, 47.862244%, 31.785583%)" offset="0.648438"/><stop stop-opacity="1" stop-color="rgb(93.437195%, 48.085022%, 31.872559%)" offset="0.65625"/><stop stop-opacity="1" stop-color="rgb(93.452454%, 48.309326%, 31.958008%)" offset="0.664062"/><stop stop-opacity="1" stop-color="rgb(93.467712%, 48.532104%, 32.043457%)" offset="0.671875"/><stop stop-opacity="1" stop-color="rgb(93.484497%, 48.756409%, 32.128906%)" offset="0.679688"/><stop stop-opacity="1" stop-color="rgb(93.499756%, 48.980713%, 32.214355%)" offset="0.6875"/><stop stop-opacity="1" stop-color="rgb(93.515015%, 49.203491%, 32.301331%)" offset="0.695312"/><stop stop-opacity="1" stop-color="rgb(93.530273%, 49.427795%, 32.38678%)" offset="0.703125"/><stop stop-opacity="1" stop-color="rgb(93.545532%, 49.650574%, 32.472229%)" offset="0.710938"/><stop stop-opacity="1" stop-color="rgb(93.560791%, 49.874878%, 32.557678%)" offset="0.71875"/><stop stop-opacity="1" stop-color="rgb(93.57605%, 50.099182%, 32.643127%)" offset="0.726562"/><stop stop-opacity="1" stop-color="rgb(93.591309%, 50.32196%, 32.730103%)" offset="0.734375"/><stop stop-opacity="1" stop-color="rgb(93.606567%, 50.546265%, 32.815552%)" offset="0.742188"/><stop stop-opacity="1" stop-color="rgb(93.621826%, 50.769043%, 32.901001%)" offset="0.75"/><stop stop-opacity="1" stop-color="rgb(93.637085%, 50.993347%, 32.98645%)" offset="0.757812"/><stop stop-opacity="1" stop-color="rgb(93.652344%, 51.216125%, 33.073425%)" offset="0.765625"/><stop stop-opacity="1" stop-color="rgb(93.667603%, 51.44043%, 33.158875%)" offset="0.773438"/><stop stop-opacity="1" stop-color="rgb(93.682861%, 51.664734%, 33.244324%)" offset="0.78125"/><stop stop-opacity="1" stop-color="rgb(93.69812%, 51.887512%, 33.329773%)" offset="0.789062"/><stop stop-opacity="1" stop-color="rgb(93.713379%, 52.111816%, 33.415222%)" offset="0.796875"/><stop stop-opacity="1" stop-color="rgb(93.728638%, 52.334595%, 33.502197%)" offset="0.804688"/><stop stop-opacity="1" stop-color="rgb(93.743896%, 52.558899%, 33.587646%)" offset="0.8125"/><stop stop-opacity="1" stop-color="rgb(93.759155%, 52.783203%, 33.673096%)" offset="0.820312"/><stop stop-opacity="1" stop-color="rgb(93.774414%, 53.005981%, 33.758545%)" offset="0.828125"/><stop stop-opacity="1" stop-color="rgb(93.789673%, 53.230286%, 33.84552%)" offset="0.835938"/><stop stop-opacity="1" stop-color="rgb(93.804932%, 53.453064%, 33.930969%)" offset="0.84375"/><stop stop-opacity="1" stop-color="rgb(93.82019%, 53.677368%, 34.016418%)" offset="0.851562"/><stop stop-opacity="1" stop-color="rgb(93.835449%, 53.900146%, 34.101868%)" offset="0.859375"/><stop stop-opacity="1" stop-color="rgb(93.850708%, 54.124451%, 34.187317%)" offset="0.867188"/><stop stop-opacity="1" stop-color="rgb(93.865967%, 54.348755%, 34.274292%)" offset="0.875"/><stop stop-opacity="1" stop-color="rgb(93.881226%, 54.571533%, 34.359741%)" offset="0.882812"/><stop stop-opacity="1" stop-color="rgb(93.896484%, 54.795837%, 34.44519%)" offset="0.890625"/><stop stop-opacity="1" stop-color="rgb(93.911743%, 55.018616%, 34.53064%)" offset="0.898438"/><stop stop-opacity="1" stop-color="rgb(93.928528%, 55.24292%, 34.616089%)" offset="0.90625"/><stop stop-opacity="1" stop-color="rgb(93.943787%, 55.467224%, 34.703064%)" offset="0.914062"/><stop stop-opacity="1" stop-color="rgb(93.959045%, 55.690002%, 34.788513%)" offset="0.921875"/><stop stop-opacity="1" stop-color="rgb(93.974304%, 55.914307%, 34.873962%)" offset="0.929688"/><stop stop-opacity="1" stop-color="rgb(93.989563%, 56.137085%, 34.959412%)" offset="0.9375"/><stop stop-opacity="1" stop-color="rgb(94.004822%, 56.361389%, 35.046387%)" offset="0.945312"/><stop stop-opacity="1" stop-color="rgb(94.020081%, 56.584167%, 35.131836%)" offset="0.953125"/><stop stop-opacity="1" stop-color="rgb(94.035339%, 56.808472%, 35.217285%)" offset="0.960938"/><stop stop-opacity="1" stop-color="rgb(94.050598%, 57.032776%, 35.302734%)" offset="0.96875"/><stop stop-opacity="1" stop-color="rgb(94.065857%, 57.255554%, 35.388184%)" offset="0.976562"/><stop stop-opacity="1" stop-color="rgb(94.081116%, 57.479858%, 35.475159%)" offset="0.984375"/><stop stop-opacity="1" stop-color="rgb(94.096375%, 57.702637%, 35.560608%)" offset="0.992188"/><stop stop-opacity="1" stop-color="rgb(94.111633%, 57.926941%, 35.646057%)" offset="1"/></linearGradient><clipPath id="62522326a2"><rect x="0" width="96" y="0" height="96"/></clipPath><clipPath id="8c77e4dd73"><path d="M 14.5625 27.5625 L 64.8125 27.5625 L 64.8125 68.8125 L 14.5625 68.8125 Z M 14.5625 27.5625 " clip-rule="nonzero"/></clipPath><clipPath id="5ede41393c"><path d="M 68.375 27.5625 L 84.125 27.5625 L 84.125 68.476562 L 68.375 68.476562 Z M 68.375 27.5625 " clip-rule="nonzero"/></clipPath><clipPath id="0406ccbe36"><path d="M 84.125 29.0625 L 84.125 66.9375 C 84.125 67.335938 83.96875 67.714844 83.6875 67.996094 C 83.40625 68.277344 83.023438 68.4375 82.625 68.4375 L 69.875 68.4375 C 69.480469 68.4375 69.097656 68.277344 68.816406 67.996094 C 68.535156 67.714844 68.375 67.335938 68.375 66.9375 L 68.375 29.0625 C 68.375 28.664062 68.535156 28.28125 68.816406 28 C 69.097656 27.71875 69.480469 27.5625 69.875 27.5625 L 82.625 27.5625 C 83.023438 27.5625 83.40625 27.71875 83.6875 28 C 83.96875 28.28125 84.125 28.664062 84.125 29.0625 Z M 84.125 29.0625 " clip-rule="nonzero"/></clipPath><clipPath id="74d70dc2b1"><path d="M 0.375 0.5625 L 16.125 0.5625 L 16.125 41.476562 L 0.375 41.476562 Z M 0.375 0.5625 " clip-rule="nonzero"/></clipPath><clipPath id="ebe7d4aadb"><path d="M 16.125 2.0625 L 16.125 39.9375 C 16.125 40.335938 15.96875 40.714844 15.6875 40.996094 C 15.40625 41.277344 15.023438 41.4375 14.625 41.4375 L 1.875 41.4375 C 1.480469 41.4375 1.097656 41.277344 0.816406 40.996094 C 0.535156 40.714844 0.375 40.335938 0.375 39.9375 L 0.375 2.0625 C 0.375 1.664062 0.535156 1.28125 0.816406 1 C 1.097656 0.71875 1.480469 0.5625 1.875 0.5625 L 14.625 0.5625 C 15.023438 0.5625 15.40625 0.71875 15.6875 1 C 15.96875 1.28125 16.125 1.664062 16.125 2.0625 Z M 16.125 2.0625 " clip-rule="nonzero"/></clipPath><clipPath id="93f121bb5f"><rect x="0" width="17" y="0" height="42"/></clipPath></defs><g clip-path="url(#707df0011a)"><g transform="matrix(1, 0, 0, 1, 0, -0.000000000000008101)"><g clip-path="url(#62522326a2)"><g clip-path="url(#0b81858def)"><g clip-path="url(#eddc7c1381)"><path fill="url(#3e6ea027b9)" d="M 0 0 L 0 95.964844 L 96 95.964844 L 96 0 Z M 0 0 " fill-rule="nonzero"/></g></g></g></g></g><g clip-path="url(#8c77e4dd73)"><path fill="#ffffff" d="M 64.402344 46.886719 L 45.539062 28.027344 C 45.089844 27.574219 44.414062 27.445312 43.828125 27.6875 C 43.238281 27.929688 42.855469 28.503906 42.855469 29.136719 L 42.855469 40.140625 L 16.136719 40.140625 C 15.269531 40.140625 14.5625 40.84375 14.5625 41.710938 L 14.5625 54.285156 C 14.5625 55.15625 15.269531 55.859375 16.136719 55.859375 L 42.855469 55.859375 L 42.855469 66.859375 C 42.855469 67.496094 43.238281 68.070312 43.828125 68.3125 C 44.023438 68.390625 44.226562 68.433594 44.429688 68.433594 C 44.835938 68.433594 45.238281 68.273438 45.539062 67.972656 L 64.402344 49.113281 C 65.015625 48.496094 65.015625 47.503906 64.402344 46.886719 Z M 64.402344 46.886719 " fill-opacity="1" fill-rule="nonzero"/></g><g clip-path="url(#5ede41393c)"><g clip-path="url(#0406ccbe36)"><g transform="matrix(1, 0, 0, 1, 68, 27)"><g clip-path="url(#93f121bb5f)"><g clip-path="url(#74d70dc2b1)"><g clip-path="url(#ebe7d4aadb)"><path fill="#ffffff" d="M 16.125 0.5625 L 16.125 41.414062 L 0.375 41.414062 L 0.375 0.5625 Z M 16.125 0.5625 " fill-opacity="1" fill-rule="nonzero"/></g></g></g></g></g></g></svg>