<svg xmlns="http://www.w3.org/2000/svg" xmlns:xlink="http://www.w3.org/1999/xlink" width="300" zoomAndPan="magnify" viewBox="0 0 224.87999 225" height="300" preserveAspectRatio="xMidYMid meet" version="1.0"><defs><clipPath id="16c5c34354"><path d="M 0 0.0585938 L 224.761719 0.0585938 L 224.761719 224.9375 L 0 224.9375 Z M 0 0.0585938 " clip-rule="nonzero"/></clipPath><clipPath id="7bee4cf8f2"><path d="M 127.683594 0.0585938 C 130.148438 0.0585938 132.628906 0.0585938 135.089844 0.0585938 C 154.71875 3.816406 166.984375 16.320312 172.570312 36.777344 C 205.292969 34.046875 229.082031 72.730469 214.585938 110.699219 C 219.40625 118.675781 223.425781 127.601562 224.878906 139.578125 C 224.878906 143.007812 224.878906 146.433594 224.878906 149.863281 C 220.550781 180.347656 201.921875 200.945312 171.34375 195.398438 C 163.472656 211.050781 149.472656 226.113281 127.6875 224.773438 C 116.425781 223.746094 108.589844 217.796875 101.730469 210.5625 C 94.507812 216.574219 86.683594 221.292969 75.378906 221.34375 C 49.222656 221.433594 31.726562 198.277344 31.300781 166.511719 C 14.488281 159.082031 3.101562 145.210938 0 121.476562 C 0 118.046875 0 114.609375 0 111.195312 C 3.421875 87.675781 14.191406 72.902344 32.121094 66.640625 C 31.042969 26.964844 66.910156 2.175781 96.375 19.652344 C 103.390625 11.011719 113.316406 1.582031 127.683594 0.0585938 Z M 127.683594 0.0585938 " clip-rule="nonzero"/></clipPath><clipPath id="25efb86e55"><path d="M 0 0.0585938 L 224.761719 0.0585938 L 224.761719 224.9375 L 0 224.9375 Z M 0 0.0585938 " clip-rule="nonzero"/></clipPath><clipPath id="25728ca005"><path d="M 127.683594 0.0585938 C 130.148438 0.0585938 132.628906 0.0585938 135.089844 0.0585938 C 154.71875 3.816406 166.984375 16.320312 172.570312 36.777344 C 205.292969 34.046875 229.082031 72.730469 214.585938 110.699219 C 219.40625 118.675781 223.425781 127.601562 224.878906 139.578125 C 224.878906 143.007812 224.878906 146.433594 224.878906 149.863281 C 220.550781 180.347656 201.921875 200.945312 171.34375 195.398438 C 163.472656 211.050781 149.472656 226.113281 127.6875 224.773438 C 116.425781 223.746094 108.589844 217.796875 101.730469 210.5625 C 94.507812 216.574219 86.683594 221.292969 75.378906 221.34375 C 49.222656 221.433594 31.726562 198.277344 31.300781 166.511719 C 14.488281 159.082031 3.101562 145.210938 0 121.476562 C 0 118.046875 0 114.609375 0 111.195312 C 3.421875 87.675781 14.191406 72.902344 32.121094 66.640625 C 31.042969 26.964844 66.910156 2.175781 96.375 19.652344 C 103.390625 11.011719 113.316406 1.582031 127.683594 0.0585938 Z M 127.683594 0.0585938 " clip-rule="nonzero"/></clipPath><clipPath id="52d12fd6a7"><rect x="0" width="225" y="0" height="225"/></clipPath><clipPath id="2709920b62"><path d="M 34.117188 64.625 L 151.804688 64.625 L 151.804688 160.574219 L 34.117188 160.574219 Z M 34.117188 64.625 " clip-rule="nonzero"/></clipPath><clipPath id="fb49053fd4"><path d="M 160.171875 64.625 L 197.066406 64.625 L 197.066406 160.464844 L 160.171875 160.464844 Z M 160.171875 64.625 " clip-rule="nonzero"/></clipPath><clipPath id="4e7662bf8c"><path d="M 197.066406 68.136719 L 197.066406 156.859375 C 197.066406 157.792969 196.695312 158.6875 196.039062 159.34375 C 195.378906 160.003906 194.484375 160.375 193.554688 160.375 L 163.6875 160.375 C 162.753906 160.375 161.859375 160.003906 161.203125 159.34375 C 160.542969 158.6875 160.171875 157.792969 160.171875 156.859375 L 160.171875 68.136719 C 160.171875 67.207031 160.542969 66.3125 161.203125 65.652344 C 161.859375 64.996094 162.753906 64.625 163.6875 64.625 L 193.554688 64.625 C 194.484375 64.625 195.378906 64.996094 196.039062 65.652344 C 196.695312 66.3125 197.066406 67.207031 197.066406 68.136719 Z M 197.066406 68.136719 " clip-rule="nonzero"/></clipPath><clipPath id="2502bd863e"><path d="M 0.171875 0.625 L 37.066406 0.625 L 37.066406 96.464844 L 0.171875 96.464844 Z M 0.171875 0.625 " clip-rule="nonzero"/></clipPath><clipPath id="2a810fc141"><path d="M 37.066406 4.136719 L 37.066406 92.859375 C 37.066406 93.792969 36.695312 94.6875 36.039062 95.34375 C 35.378906 96.003906 34.484375 96.375 33.554688 96.375 L 3.6875 96.375 C 2.753906 96.375 1.859375 96.003906 1.203125 95.34375 C 0.542969 94.6875 0.171875 93.792969 0.171875 92.859375 L 0.171875 4.136719 C 0.171875 3.207031 0.542969 2.3125 1.203125 1.652344 C 1.859375 0.996094 2.753906 0.625 3.6875 0.625 L 33.554688 0.625 C 34.484375 0.625 35.378906 0.996094 36.039062 1.652344 C 36.695312 2.3125 37.066406 3.207031 37.066406 4.136719 Z M 37.066406 4.136719 " clip-rule="nonzero"/></clipPath><clipPath id="80315ab271"><rect x="0" width="38" y="0" height="97"/></clipPath></defs><g clip-path="url(#16c5c34354)"><g clip-path="url(#7bee4cf8f2)"><g transform="matrix(1, 0, 0, 1, 0, -0.000000000000003234)"><g clip-path="url(#52d12fd6a7)"><g clip-path="url(#25efb86e55)"><g clip-path="url(#25728ca005)"><path fill="#288aff" d="M 0 0.0585938 L 224.878906 0.0585938 L 224.878906 224.941406 L 0 224.941406 Z M 0 0.0585938 " fill-opacity="1" fill-rule="nonzero"/></g></g></g></g></g></g><g clip-path="url(#2709920b62)"><path fill="#ffffff" d="M 150.882812 109.890625 L 106.691406 65.703125 C 105.628906 64.648438 104.054688 64.339844 102.675781 64.90625 C 101.300781 65.472656 100.402344 66.820312 100.402344 68.308594 L 100.402344 94.085938 L 37.800781 94.085938 C 35.765625 94.085938 34.117188 95.738281 34.117188 97.769531 L 34.117188 127.230469 C 34.117188 129.261719 35.765625 130.910156 37.800781 130.910156 L 100.402344 130.910156 L 100.402344 156.6875 C 100.402344 158.175781 101.300781 159.523438 102.675781 160.09375 C 103.132812 160.277344 103.613281 160.371094 104.085938 160.371094 C 105.042969 160.371094 105.984375 159.996094 106.691406 159.296875 L 150.882812 115.105469 C 152.316406 113.664062 152.316406 111.335938 150.882812 109.890625 Z M 150.882812 109.890625 " fill-opacity="1" fill-rule="nonzero"/></g><g clip-path="url(#fb49053fd4)"><g clip-path="url(#4e7662bf8c)"><g transform="matrix(1, 0, 0, 1, 160, 64)"><g clip-path="url(#80315ab271)"><g clip-path="url(#2502bd863e)"><g clip-path="url(#2a810fc141)"><path fill="#ffffff" d="M 37.066406 0.625 L 37.066406 96.320312 L 0.171875 96.320312 L 0.171875 0.625 Z M 37.066406 0.625 " fill-opacity="1" fill-rule="nonzero"/></g></g></g></g></g></g></svg>